<?xml version="1.0" encoding="UTF-8" standalone="no"?>
<svg width="402px" height="402px" viewBox="0 0 402 402" version="1.1" xmlns="http://www.w3.org/2000/svg" xmlns:xlink="http://www.w3.org/1999/xlink" xmlns:sketch="http://www.bohemiancoding.com/sketch/ns">
    <!-- Generator: Sketch 3.0.1 (7597) - http://www.bohemiancoding.com/sketch -->
    <title>empty-app</title>
    <description>Created with Sketch.</description>
    <defs></defs>
    <g id="Page-1" stroke="none" stroke-width="1" fill="none" fill-rule="evenodd" sketch:type="MSPage">
        <g id="empty-app" sketch:type="MSLayerGroup" transform="translate(1.000000, 0.000000)" stroke="#000000">
            <g id="Line" sketch:type="MSShapeGroup">
                <path d="M200,26.9941463 C295.78125,26.9941463 373.4375,104.768585 373.4375,200.69561 C373.4375,296.622634 295.78125,374.397073 200,374.397073 C104.21875,374.397073 26.5625,296.622634 26.5625,200.69561 C26.5625,104.768585 104.21875,26.9941463 200,26.9941463 L200,26.9941463 Z" id="Shape"></path>
                <path d="M200,93.1102439 C259.335938,93.1102439 307.421875,141.269366 307.421875,200.69561 C307.421875,260.121854 259.335938,308.280976 200,308.280976 C140.664062,308.280976 92.578125,260.121854 92.578125,200.69561 C92.578125,141.269366 140.664062,93.1102439 200,93.1102439 L200,93.1102439 Z" id="Shape"></path>
                <path d="M0.1953125,0.58682926 L399.804688,400.804367" id="Line-11" stroke-linecap="square"></path>
                <path d="M0.267624436,400.731968 L399.876976,0.514407269" id="Line-12" stroke-linecap="square"></path>
                <g id="Group" transform="translate(0.000000, 25.820488)" stroke-linecap="square">
                    <path d="M0.1953125,98.7829268 L400.105303,98.7829268" id="Line-2"></path>
                    <path d="M0.1953125,174.679512 L400.105303,174.679512" id="Line-3"></path>
                    <path d="M0.1953125,250.576098 L400.105303,250.576098" id="Line-4"></path>
                    <path d="M0.1953125,348.772195 L400.105303,348.772195" id="Line-5"></path>
                    <path d="M0.1953125,0.586829268 L400.105303,0.586829268" id="Line"></path>
                </g>
                <g id="Group" transform="translate(200.179512, 200.500000) rotate(-270.000000) translate(-200.179512, -200.500000) translate(0.179512, 26.000000)" stroke-linecap="square">
                    <path d="M0.1953125,0.586829268 L400.105303,0.586829268" id="Line-10"></path>
                    <path d="M0.1953125,98.7829268 L400.105303,98.7829268" id="Line-9"></path>
                    <path d="M0.1953125,174.679512 L400.105303,174.679512" id="Line-8"></path>
                    <path d="M0.1953125,250.576098 L400.105303,250.576098" id="Line-7"></path>
                    <path d="M0.1953125,348.772195 L400.105303,348.772195" id="Line-6"></path>
                </g>
            </g>
        </g>
    </g>
</svg>