<svg xmlns="http://www.w3.org/2000/svg" xmlns:xlink="http://www.w3.org/1999/xlink" viewBox="2130 0 640 360">
  <defs>
    <style>
      .cls-1 {
        clip-path: url(#clip-push-workflow-android);
      }

      .cls-2, .cls-8 {
        fill: none;
      }

      .cls-2, .cls-3, .cls-8 {
        stroke: #333;
        stroke-width: 2px;
      }

      .cls-2 {
        stroke-linecap: square;
      }

      .cls-2, .cls-8, .cls-9 {
        fill-rule: evenodd;
      }

      .cls-3, .cls-6 {
        fill: #fff;
      }

      .cls-10, .cls-4, .cls-7, .cls-9 {
        fill: #333;
      }

      .cls-10, .cls-4, .cls-7 {
        font-size: 16px;
      }

      .cls-8 {
        stroke-dasharray: 5.995 2.997;
      }

      .cls-4,.cls-5, .cls-7,.cls-10,.cls-11,.cls-12, text, tspan {
        font-family: -apple-system, BlinkMacSystemFont, "Segoe UI", Roboto, Helvetica, "PingFang SC", "Microsoft Yahei", "WenQuanYi Micro Hei", Arial, sans-serif, "Apple Color Emoji", "Segoe UI Emoji", "Segoe UI Symbol";
        fill: #333;
      }
      #caption, #caption tspan {
        fill: #999;
      }
    </style>
    <clipPath id="clip-push-workflow-android">
      <rect x="2130" width="640" height="360"/>
    </clipPath>
  </defs>
  <g id="push-workflow-android" class="cls-1">
    <rect class="cls-6" x="2130" width="640" height="360"/>
    <g id="apns-registration2" transform="translate(2130 1)">
      <g id="apns-registration">
        <g id="content" transform="translate(41 76)">
          <g id="column-4" transform="translate(492)">
            <path id="Line-1" class="cls-2" d="M85,28.5v190" transform="translate(-54 -0.5)"/>
            <g id="column-1-top" transform="translate(-25.5)">
              <rect id="Rectangle" class="cls-3" width="110" height="33" transform="translate(0.5)"/>
              <text id="LeanCloud_iOS_SDK" data-name="LeanCloud iOS SDK" class="cls-4" transform="translate(9 22.5)"><tspan x="0" y="0">Android </tspan><tspan class="cls-5" y="0">设备</tspan></text>
            </g>
            <g id="column-1-bottom" transform="translate(0 219)">
              <rect id="Rectangle-2" data-name="Rectangle" class="cls-3" width="110" height="33" transform="translate(-25)"/>
              <text id="LeanCloud_iOS_SDK-2" data-name="LeanCloud iOS SDK" class="cls-4" transform="translate(-15.5 22.5)"><tspan x="0" y="0">Android </tspan><tspan class="cls-5" y="0">设备</tspan></text>
            </g>
          </g>
          <g id="column-3" transform="translate(300 -0.5)">
            <path id="line-3" class="cls-2" d="M68,30V220"/>
            <g id="column-3-top">
              <rect id="Rectangle-Copy" class="cls-3" width="136" height="33" transform="translate(0 0.5)"/>
              <text id="LeanCloud_云端" data-name="LeanCloud 云端" class="cls-4" transform="translate(11.078 23)"><tspan x="0" y="0">LeanCloud </tspan><tspan class="cls-5" y="0">云端</tspan></text>
            </g>
            <g id="column-3-bottom" transform="translate(0 219)">
              <rect id="Rectangle-Copy-2" data-name="Rectangle-Copy" class="cls-3" width="136" height="33" transform="translate(0 0.5)"/>
              <text id="LeanCloud_云端-2" data-name="LeanCloud 云端" class="cls-4" transform="translate(11.078 23)"><tspan x="0" y="0">LeanCloud </tspan><tspan class="cls-5" y="0">云端</tspan></text>
            </g>
          </g>
          <g id="column-2" transform="translate(75)">
            <path id="Line-2" class="cls-2" d="M33,28.5v190" transform="translate(65.5)"/>
            <g id="column-2-top" transform="translate(0.5)">
              <rect id="Rectangle-Copy-2-2" data-name="Rectangle-Copy-2" class="cls-3" width="194" height="33" transform="translate(0.5)"/>
              <text id="APNs" class="cls-4" transform="translate(11 22)"><tspan x="0" y="0">LeanCloud Android SDK</tspan></text>
            </g>
            <g id="column-2-bottom" transform="translate(-0.5 219)">
              <rect id="Rectangle-Copy-2-3" data-name="Rectangle-Copy-2" class="cls-3" width="194" height="33" transform="translate(1.5)"/>
              <text id="APNs-2" data-name="APNs" class="cls-4" transform="translate(11 22)"><tspan x="0" y="0">LeanCloud Android SDK</tspan></text>
            </g>
            <rect id="pad" class="cls-6" width="22" height="24" transform="translate(87 126)"/>
            <rect id="pad-2" data-name="pad" class="cls-6" width="22" height="23" transform="translate(87 86)"/>
          </g>
          <g id="column-1" transform="translate(-21)">
            <path id="Line-2-2" data-name="Line-2" class="cls-2" d="M33,28.5v190" transform="translate(0.5)"/>
            <g id="column-2-top-2" data-name="column-2-top" transform="translate(0.5)">
              <rect id="Rectangle-Copy-2-4" data-name="Rectangle-Copy-2" class="cls-3" width="65" height="33" transform="translate(0.5)"/>
              <text id="APNs-3" data-name="APNs" class="cls-7" transform="translate(9 22)"><tspan x="0" y="0">开发者</tspan></text>
            </g>
            <g id="column-2-bottom-2" data-name="column-2-bottom" transform="translate(-0.5 219)">
              <rect id="Rectangle-Copy-2-5" data-name="Rectangle-Copy-2" class="cls-3" width="65" height="33" transform="translate(1.5)"/>
              <text id="APNs-4" data-name="APNs" class="cls-7" transform="translate(10 22)"><tspan x="0" y="0">开发者</tspan></text>
            </g>
          </g>
          <g id="direction-2" transform="translate(490.013 316) rotate(180)">
            <path id="dotted-line" class="cls-8" d="M181.986-5.333H.986" transform="translate(316.999 234.667) rotate(180)"/>
            <path id="arrow-left" class="cls-9" d="M201.366-10.486,210-5.5,201.366-.513Z" transform="translate(333.379 234.514) rotate(180)"/>
          </g>
          <g id="direction-1" transform="translate(12 112.986)">
            <path id="Line" class="cls-2" d="M.5,5h345" transform="translate(346.5 10.014) rotate(180)"/>
            <path id="arrow-right" class="cls-9" d="M202,9.986,210.635,5,202,.014Z" transform="translate(144)"/>
          </g>
          <g id="direction-1-2" data-name="direction-1" transform="translate(12 153.986)">
            <path id="Line-2-3" data-name="Line" class="cls-2" d="M.5,5h345" transform="translate(346.5 10.014) rotate(180)"/>
            <path id="arrow-right-2" data-name="arrow-right" class="cls-9" d="M202,9.986,210.635,5,202,.014Z" transform="translate(144)"/>
          </g>
          <g id="direction-3" transform="translate(76 168.987)">
            <path id="Line-3-2" data-name="Line" class="cls-2" d="M.5,32H148.373" transform="translate(291.5 0.013)"/>
            <path id="arrow-right-3" data-name="arrow-right" class="cls-9" d="M396,36.986,404.635,32,396,27.014Z" transform="translate(41)"/>
          </g>
          <text id="_下发_deviceToken" data-name="➋ 下发 deviceToken" class="cls-10" transform="translate(401 187)"><tspan x="0" y="0">➍</tspan><tspan class="cls-11" y="0"> </tspan><tspan class="cls-5" y="0">发送推送</tspan></text>
          <text id="_调用_SDK_接口保存__Installation_实例" data-name="➋ 调用 SDK 接口保存 _Installation 实例" class="cls-10" transform="translate(27 86)"><tspan x="0" y="17">➋</tspan><tspan class="cls-12" y="17"> </tspan><tspan class="cls-5" y="17">调用</tspan><tspan class="cls-12" y="17" xml:space="preserve"> SDK </tspan><tspan class="cls-5" y="17">接口保存</tspan><tspan class="cls-12" y="17" xml:space="preserve"> _Installation </tspan><tspan class="cls-5" y="17">实例</tspan></text>
          <text id="_调用_SDK_接口发送消息" data-name="➌ 调用 SDK 接口发送消息" class="cls-10" transform="translate(27 127)"><tspan x="0" y="17">➌</tspan><tspan class="cls-12" y="17"> </tspan><tspan class="cls-5" y="17">调用</tspan><tspan class="cls-12" y="17" xml:space="preserve"> SDK </tspan><tspan class="cls-5" y="17">接口发送消息</tspan></text>
          <text id="_建立_Socket_连接" data-name="➊ 建立 Socket 连接" class="cls-10" transform="translate(185 47)"><tspan x="0" y="17">➊</tspan><tspan class="cls-11" y="17"> </tspan><tspan class="cls-5" y="17">建立</tspan><tspan class="cls-11" y="17" xml:space="preserve"> Socket </tspan><tspan class="cls-5" y="17">连接</tspan></text>
        </g>
        <text id="caption" data-name="注册 APNs (Apple Push Notification Service) 服务时序图" class="cls-4" transform="translate(250 45)"><tspan x="0" y="0">Android </tspan><tspan class="cls-5" y="0">推送时序图</tspan></text>
      </g>
    </g>
  </g>
</svg>
