<svg xmlns="http://www.w3.org/2000/svg" xmlns:xlink="http://www.w3.org/1999/xlink" viewBox="2840 0 500 360">
  <defs>
    <style>
      .cls-1 {
        clip-path: url(#clip-todo-schema);
      }

      .cls-2, .cls-3, .cls-5, .cls-8, .cls-9 {
        fill: none;
        stroke-linecap: round;
      }

      .cls-2 {
        stroke: #a6a6a6;
      }

      .cls-2, .cls-3 {
        stroke-miterlimit: 10;
      }

      .cls-2, .cls-3, .cls-9 {
        stroke-width: 2px;
      }

      .cls-3, .cls-8 {
        stroke: #333;
      }

      .cls-4 {
        fill: #fff;
      }

      .cls-5, .cls-9 {
        stroke: #1a1a1a;
      }

      .cls-5, .cls-8, .cls-9 {
        stroke-linejoin: round;
      }

      .cls-5, .cls-8 {
        stroke-width: 2px;
      }

      .cls-6, .cls-7 {
        font-size: 8px;
      }

      .cls-6,.cls-11 {
        font-family: -apple-system,BlinkMacSystemFont,"Segoe UI",Roboto,Helvetica,"PingFang SC","Microsoft Yahei","WenQuanYi Micro Hei",Arial,sans-serif,"Apple Color Emoji","Segoe UI Emoji","Segoe UI Symbol";
      }
      .cls-6 {
        font-weight: 700;
      }

      .cls-7 {
        font-family: Menlo,Monaco,Consolas,"Courier New",monospace;
      }

      .cls-9 {
        stroke-dasharray: 4 4;
      }

      .cls-10 {
        fill: #1a1a1a;
      }
      .cls-11 {
        fill: #888;
        font-size: 14px;
      }
    </style>
    <clipPath id="clip-todo-schema">
      <rect x="2840" width="500" height="360"/>
    </clipPath>
  </defs>
  <g id="todo-schema" class="cls-1">
    <rect class="cls-4" x="2840" width="500" height="360"/>
    <g id="schema" transform="translate(2838.396 5.904)">
      <g id="Group_1" data-name="Group 1" transform="translate(33.604 30.79)">
        <path id="Path_1" data-name="Path 1" class="cls-2" d="M429,354.444c30.279,0,45.74-34.144,75.375-34.144h83.749" transform="translate(-152.271 -114.557)"/>
        <path id="Path_2" data-name="Path 2" class="cls-2" d="M429,365.829c30.279,0,45.74-13.529,75.375-13.529h35.432" transform="translate(-152.271 -125.942)"/>
        <path id="Path_3" data-name="Path 3" class="cls-2" d="M429,373.3c30.279,0,45.74,7.086,75.375,7.086h32.211" transform="translate(-152.271 -133.413)"/>
        <path id="Path_4" data-name="Path 4" class="cls-2" d="M429,373.3c30.279,0,45.74,27.7,75.375,27.7h51.538" transform="translate(-152.271 -133.413)"/>
        <path id="Path_5" data-name="Path 5" class="cls-2" d="M429,373.3c30.279,0,45.74,48.317,75.375,48.317h32.211" transform="translate(-152.271 -133.413)"/>
        <path id="Path_6" data-name="Path 6" class="cls-3" d="M387.375,373.3c-29.634,0-45.1,30.923-75.375,30.923" transform="translate(-110.646 -133.413)"/>
        <path id="Path_7" data-name="Path 7" class="cls-2" d="M210.865,419.521c-15.461,0-23.192-3.221-38.654-3.221H140" transform="translate(-49.452 -148.711)"/>
        <path id="Path_8" data-name="Path 8" class="cls-2" d="M176.355,421.3c-15.461,0-23.192,17.394-38.654,17.394H43" transform="translate(-14.942 -150.49)"/>
        <path id="Path_9" data-name="Path 9" class="cls-3" d="M387.375,361.915c-29.634,0-45.1-20.615-75.375-20.615" transform="translate(-110.646 -122.028)"/>
        <path id="Path_10" data-name="Path 10" class="cls-2" d="M167.086,333.829c-15.461,0-23.192-13.529-38.654-13.529H93" transform="translate(-32.731 -114.557)"/>
        <path id="Path_11" data-name="Path 11" class="cls-2" d="M134.355,341.3c-15.461,0-23.192,7.086-38.654,7.086H1" transform="translate(0 -122.028)"/>
        <path id="Path_12" data-name="Path 12" class="cls-2" d="M161.394,341.3c-15.461,0-23.192,27.7-38.654,27.7H77" transform="translate(-27.039 -122.028)"/>
        <path id="Path_13" data-name="Path 13" class="cls-2" d="M219.586,94.675c-25.125,0-37.365-75.375-61.846-75.375H112" transform="translate(-39.491 -7.469)"/>
        <path id="Path_14" data-name="Path 14" class="cls-2" d="M222.432,106.059c-25.125,0-37.365-54.759-61.846-54.759H120" transform="translate(-42.337 -18.854)"/>
        <path id="Path_15" data-name="Path 15" class="cls-2" d="M216.384,117.444c-25.125,0-37.365-34.144-61.846-34.144H103" transform="translate(-36.289 -30.239)"/>
        <path id="Path_16" data-name="Path 16" class="cls-2" d="M216.384,128.829c-25.125,0-37.365-13.529-61.846-13.529H103" transform="translate(-36.289 -41.623)"/>
        <path id="Path_17" data-name="Path 17" class="cls-2" d="M213.538,136.3c-25.125,0-37.365,7.087-61.846,7.087H95" transform="translate(-33.443 -49.095)"/>
        <path id="Path_18" data-name="Path 18" class="cls-2" d="M222.432,136.3c-25.125,0-37.365,27.7-61.846,27.7H120" transform="translate(-42.337 -49.095)"/>
        <path id="Path_19" data-name="Path 19" class="cls-2" d="M225.278,136.3c-25.125,0-37.365,48.317-61.846,48.317H128" transform="translate(-45.183 -49.095)"/>
        <path id="Path_20" data-name="Path 20" class="cls-2" d="M225.278,136.3c-25.125,0-37.365,68.932-61.846,68.932H128" transform="translate(-45.183 -49.095)"/>
        <path id="Path_21" data-name="Path 21" class="cls-2" d="M204.643,136.3c-25.125,0-37.365,89.547-61.846,89.547H70" transform="translate(-24.548 -49.095)"/>
        <path id="Path_22" data-name="Path 22" class="cls-4" d="M446.442,366.017v-8.375A6.461,6.461,0,0,0,440,351.2H379.442A6.461,6.461,0,0,0,373,357.642v16.75a6.461,6.461,0,0,0,6.442,6.442H440a6.461,6.461,0,0,0,6.442-6.442Z" transform="translate(-132.348 -125.55)"/>
        <path id="Path_23" data-name="Path 23" class="cls-5" d="M446.442,366.017v-8.375A6.461,6.461,0,0,0,440,351.2H379.442A6.461,6.461,0,0,0,373,357.642v16.75a6.461,6.461,0,0,0,6.442,6.442H440a6.461,6.461,0,0,0,6.442-6.442Z" transform="translate(-132.348 -125.55)"/>
        <text id="TodoFolder" class="cls-6" transform="translate(253.155 242.655)"><tspan x="0" y="0">TodoFolder</tspan></text>
        <text id="containedTodos" class="cls-7" transform="translate(356.607 200.781)"><tspan x="0" y="0">containedTodos</tspan></text>
        <text id="owner" class="cls-7" transform="translate(356.607 221.396)"><tspan x="0" y="0">owner</tspan></text>
        <text id="tags" class="cls-7" transform="translate(356.607 242.011)"><tspan x="0" y="0">tags</tspan></text>
        <text id="priority" class="cls-7" transform="translate(356.607 262.626)"><tspan x="0" y="0">priority</tspan></text>
        <text id="name" class="cls-7" transform="translate(356.607 283.242)"><tspan x="0" y="0">name</tspan></text>
        <path id="Path_24" data-name="Path 24" class="cls-4" d="M290.942,414.017v-8.375A6.461,6.461,0,0,0,284.5,399.2H257.442A6.461,6.461,0,0,0,251,405.642v16.75a6.461,6.461,0,0,0,6.442,6.442H284.5a6.461,6.461,0,0,0,6.442-6.442Z" transform="translate(-88.943 -142.628)"/>
        <path id="Path_25" data-name="Path 25" class="cls-8" d="M290.942,414.017v-8.375A6.461,6.461,0,0,0,284.5,399.2H257.442A6.461,6.461,0,0,0,251,405.642v16.75a6.461,6.461,0,0,0,6.442,6.442H284.5a6.461,6.461,0,0,0,6.442-6.442Z" transform="translate(-88.943 -142.628)"/>
        <text id="Tag" class="cls-6" transform="translate(174.291 273.578)"><tspan x="0" y="0">Tag</tspan></text>
        <text id="name-2" data-name="name" class="cls-7" transform="translate(95.051 262.626)"><tspan x="0" y="0">name</tspan></text>
        <text id="targetTodoFolder" class="cls-7" transform="translate(32.561 283.242)"><tspan x="0" y="0">targetTodoFolder</tspan></text>
        <path id="Path_26" data-name="Path 26" class="cls-4" d="M276,334.017v-8.375a6.461,6.461,0,0,0-6.442-6.442H215.442A6.461,6.461,0,0,0,209,325.642v16.75a6.461,6.461,0,0,0,6.442,6.442h54.115A6.461,6.461,0,0,0,276,342.392Z" transform="translate(-74.001 -114.166)"/>
        <path id="Path_27" data-name="Path 27" class="cls-8" d="M276,334.017v-8.375a6.461,6.461,0,0,0-6.442-6.442H215.442A6.461,6.461,0,0,0,209,325.642v16.75a6.461,6.461,0,0,0,6.442,6.442h54.115A6.461,6.461,0,0,0,276,342.392Z" transform="translate(-74.001 -114.166)"/>
        <text id="Comment" class="cls-6" transform="translate(147.233 222.04)"><tspan x="0" y="0">Comment</tspan></text>
        <text id="likes" class="cls-7" transform="translate(64.772 200.781)"><tspan x="0" y="0">likes</tspan></text>
        <text id="targetTodoFolder-2" data-name="targetTodoFolder" class="cls-7" transform="translate(5.504 221.396)"><tspan x="0" y="0">targetTodoFolder</tspan></text>
        <text id="content" class="cls-7" transform="translate(54.465 242.011)"><tspan x="0" y="0">content</tspan></text>
        <path id="Path_28" data-name="Path 28" class="cls-4" d="M289.24,128.117v-8.375A6.461,6.461,0,0,0,282.8,113.3H249.942a6.461,6.461,0,0,0-6.442,6.442v16.75a6.461,6.461,0,0,0,6.442,6.442H282.8a6.461,6.461,0,0,0,6.442-6.442Z" transform="translate(-86.275 -40.912)"/>
        <path id="Path_29" data-name="Path 29" class="cls-5" d="M289.24,128.117v-8.375A6.461,6.461,0,0,0,282.8,113.3H249.942a6.461,6.461,0,0,0-6.442,6.442v16.75a6.461,6.461,0,0,0,6.442,6.442H282.8a6.461,6.461,0,0,0,6.442-6.442Z" transform="translate(-86.275 -40.912)"/>
        <text id="Todo" class="cls-6" transform="translate(169.601 89.411)"><tspan x="0" y="0">Todo</tspan></text>
        <text id="content-2" data-name="content" class="cls-7" transform="translate(76.723 6.306)"><tspan x="0" y="0">content</tspan></text>
        <text id="images" class="cls-7" transform="translate(81.877 26.921)"><tspan x="0" y="0">images</tspan></text>
        <text id="location" class="cls-7" transform="translate(70.925 47.536)"><tspan x="0" y="0">location</tspan></text>
        <text id="priority-2" data-name="priority" class="cls-7" transform="translate(70.925 68.152)"><tspan x="0" y="0">priority</tspan></text>
        <text id="reminders" class="cls-7" transform="translate(65.772 88.767)"><tspan x="0" y="0">reminders</tspan></text>
        <text id="status" class="cls-7" transform="translate(81.877 109.382)"><tspan x="0" y="0">status</tspan></text>
        <text id="title" class="cls-7" transform="translate(87.031 129.997)"><tspan x="0" y="0">title</tspan></text>
        <text id="views" class="cls-7" transform="translate(87.031 150.613)"><tspan x="0" y="0">views</tspan></text>
        <text id="whereCreated" class="cls-7" transform="translate(49.666 171.228)"><tspan x="0" y="0">whereCreated</tspan></text>
        <path id="Path_30" data-name="Path 30" class="cls-9" d="M315.7,136.261q60.589-5.508,105.975,20.035,45.418,25.511,75.632,82.01" transform="translate(-111.962 -48.734)"/>
        <circle id="Ellipse_1" data-name="Ellipse 1" class="cls-10" cx="1.804" cy="1.804" r="1.804" transform="translate(203.738 85.788)"/>
        <path id="Path_31" data-name="Path 31" class="cls-10" d="M590.1,291.343l6.249,3.672.064-7.215Z" transform="translate(-209.586 -102.994)"/>
        <text id="数据表关系图" class="cls-11" transform="translate(176 15.306)"><tspan x="0" y="0">数据表关系图</tspan></text>
      </g>
    </g>
  </g>
</svg>
